<?xml version="1.0" encoding="utf-8"?>
<!-- Generator: Adobe Illustrator 21.1.0, SVG Export Plug-In . SVG Version: 6.00 Build 0)  -->
<svg version="1.1" id="Layer_1" xmlns="http://www.w3.org/2000/svg" xmlns:xlink="http://www.w3.org/1999/xlink" x="0px" y="0px"
	 viewBox="0 0 22 22" style="enable-background:new 0 0 22 22;" xml:space="preserve">
<style type="text/css">
	.st0{fill-rule:evenodd;clip-rule:evenodd;fill:#666666;}
</style>
<g>
	<path class="st0" d="M19,19H3c-1.1,0-2-0.9-2-2V5c0-1.1,0.9-2,2-2h16c1.1,0,2,0.9,2,2v12C21,18.1,20.1,19,19,19z M13.2,16l0.5-1
		l2.7,0l0.5,1H18l-2-6h-2l-2,6H13.2z M4,16h6v-2H4V16z M4,12h6v-2H4V12z M18,6H4v2h14V6z M16,14h-2l1-3L16,14z"/>
</g>
</svg>
