<?xml version="1.0" encoding="utf-8"?>
<!-- Generator: Adobe Illustrator 21.1.0, SVG Export Plug-In . SVG Version: 6.00 Build 0)  -->
<svg version="1.1" id="Layer_1" xmlns="http://www.w3.org/2000/svg" xmlns:xlink="http://www.w3.org/1999/xlink" x="0px" y="0px"
	 viewBox="0 0 22 22" style="enable-background:new 0 0 22 22;" xml:space="preserve">
<style type="text/css">
	.st0{fill:#666666;}
</style>
<path class="st0" d="M19,2H3C1.9,2,1,2.9,1,4v15c0,1.1,0.9,2,2,2h16c1.1,0,2-0.9,2-2V4C21,2.9,20.1,2,19,2z M7,19H3v-3h4V19z M7,14
	H3v-3h4V14z M7,9H3V6h4V9z M13,19H9v-3h4V19z M13,14H9v-3h4V14z M13,9H9V6h4V9z M19,19h-4v-3h4V19z M19,14h-4v-3h4V14z M19,9h-4V6h4
	V9z"/>
</svg>
