<?xml version="1.0" encoding="utf-8"?>
<!-- Generator: Adobe Illustrator 21.1.0, SVG Export Plug-In . SVG Version: 6.00 Build 0)  -->
<svg version="1.1" id="Layer_1" xmlns="http://www.w3.org/2000/svg" xmlns:xlink="http://www.w3.org/1999/xlink" x="0px" y="0px"
	 viewBox="0 0 12 12" style="enable-background:new 0 0 12 12;" xml:space="preserve">
<style type="text/css">
	.st0{fill:#ffffff;}
</style>
<g>
	<path class="st0" d="M5,5H1.1C1,5.3,1,5.7,1,6c0,2.4,1.7,4.4,4,4.9V5z"/>
	<path class="st0" d="M10.9,5H7v5.9c2.3-0.5,4-2.5,4-4.9C11,5.7,11,5.3,10.9,5z"/>
</g>
<path class="st0" d="M9.1,2.1l0.8-1.4L9.1,0.2L8.3,1.6C7.6,1.2,6.8,1,6,1S4.4,1.2,3.7,1.6L2.9,0.2L2.1,0.7l0.8,1.4
	C2.3,2.6,1.8,3.3,1.4,4H6h4.6C10.2,3.3,9.7,2.6,9.1,2.1z"/>
</svg>
