<?xml version="1.0" encoding="utf-8"?>
<!-- Generator: Adobe Illustrator 21.1.0, SVG Export Plug-In . SVG Version: 6.00 Build 0)  -->
<svg version="1.1" id="Layer_1" xmlns="http://www.w3.org/2000/svg" xmlns:xlink="http://www.w3.org/1999/xlink" x="0px" y="0px"
	 viewBox="0 0 150 26" style="enable-background:new 0 0 150 26;" xml:space="preserve">
<style type="text/css">
	.st0{fill:#494949;}
	.st1{fill:#F48123;}
</style>
<g>
	<path class="st0" d="M35.4,4c-1.6,0-3.2,0.1-4.4,0.4v16.4c0.9,0.1,2.1,0.2,3.7,0.2c2.9,0,5.3-0.7,6.8-2.1c1.3-1.2,2.5-3.3,2.5-6.8
		c0-3.1-0.9-5-2.5-6.4C40.1,4.5,38.2,4,35.4,4z M35.5,18.3c-0.4,0-0.9,0-1.3-0.1V6.6c0.4-0.1,0.9-0.1,1.5-0.1c3,0,4.9,1.9,4.9,5.6
		C40.7,16.5,38.6,18.4,35.5,18.3z"/>
	<path class="st0" d="M51.9,9c-3.8,0-5.9,2.8-5.9,6.2c0,3.6,2.3,5.9,6.2,5.9c1.6,0,3-0.3,4.2-0.7l-0.5-2.1c-0.8,0.3-1.9,0.5-3.1,0.5
		c-1.9,0-3.5-0.8-3.5-2.7h7.7c0.1-0.4,0.1-0.8,0.1-1.2C57,11,55,9,51.9,9z M49.3,13.8c0.1-1.1,0.7-2.7,2.4-2.7
		c1.7,0,2.2,1.5,2.2,2.7H49.3z"/>
	<path class="st0" d="M65.7,9l-1.4,5.8c-0.3,1.1-0.5,2.1-0.7,3h-0.1c-0.2-1.1-0.4-2.1-0.7-3L61.4,9H58l3.9,12H65l4-12H65.7z"/>
	<path class="st0" d="M1.7,19.1c-0.6,0.8-1.1,1.4-1.4,2.1C0.2,21.3,0,21.9,0,22.2v0.4C0,23.4,0.6,24,1.4,24h21.2
		c0.8,0,1.4-0.6,1.4-1.4V6C12.4,8,5.3,14.4,1.7,19.1z"/>
</g>
<g>
	<path class="st1" d="M74.1,13.5h5.4v-2.6h-5.4V6.7h5.6V4H71v17h9v-2.8h-5.9V13.5z"/>
	<path class="st1" d="M92,9h-3.3l-1.1,2.1c-0.3,0.6-0.6,1.3-0.9,2l0,0c-0.3-0.6-0.6-1.3-0.9-1.9l-1.2-2.1h-3.5l3.5,5.9L81,21h3.4
		l1-2.3c0.3-0.6,0.6-1.3,0.9-1.9l0,0c0.3,0.7,0.6,1.3,0.9,1.9l1.2,2.3h3.5l-3.4-6.2L92,9z"/>
	<path class="st1" d="M100.6,8.6c-1.6,0-2.8,0.7-3.6,1.9l0,0l-0.2-1.7H94c0,1.1,0.1,2.4,0.1,4V26h3.2v-6.2l0,0
		c0.5,0.8,1.6,1.4,2.9,1.4c2.5,0,5-2,5-6.6C105.2,11.1,103.2,8.6,100.6,8.6z M99.4,18.8c-1.1,0-2.2-0.9-2.2-2.6v-2.3
		c0-1.5,1-2.7,2.2-2.7c1.6,0,2.4,1.6,2.4,3.8C101.9,17.1,101.1,18.8,99.4,18.8z"/>
	<path class="st1" d="M110.1,10.6L110.1,10.6l-0.2-2.2H107c0,1.1,0.1,2.4,0.1,3.9V21h3.4v-6.6c0-2.2,1.1-3.2,2.7-3.2
		c0.3,0,0.6,0,0.8,0.1V8.1c-0.2,0-0.4-0.1-0.7-0.1C112,8.1,110.7,9,110.1,10.6z"/>
	<path class="st1" d="M120.9,8c-3.8,0-5.9,3.1-5.9,6.7c0,3.9,2.3,6.4,6.2,6.4c1.6,0,3-0.3,4.2-0.7l-0.5-2.3
		c-0.8,0.3-1.9,0.5-3.1,0.5c-1.9,0-3.4-0.8-3.5-3h7.7c0.1-0.4,0.1-0.8,0.1-1.3C126,10.2,124,8,120.9,8z M118.2,13.2
		c0.1-1.2,0.7-2.9,2.4-2.9c1.7,0,2.2,1.6,2.2,2.9H118.2z"/>
	<path class="st1" d="M132.2,13.3c-1.4-0.6-1.9-0.9-1.9-1.6s0.5-1.2,1.5-1.2c0.9,0,1.8,0.3,2.2,0.6l0.6-2.4
		c-0.7-0.4-1.8-0.7-2.9-0.7c-2.6,0-4.4,1.7-4.4,4c0,1.3,0.8,2.7,3,3.7c1.3,0.6,1.8,1,1.8,1.7c0,0.7-0.5,1.2-1.7,1.2
		c-1,0-2.1-0.4-2.8-0.8l-0.6,2.4c0.8,0.5,2,0.8,3.3,0.8c3,0,4.7-1.5,4.7-4C135.1,15.4,134.1,14.2,132.2,13.3z"/>
	<path class="st1" d="M142.2,13.3c-1.4-0.6-1.9-0.9-1.9-1.6s0.5-1.2,1.5-1.2c0.9,0,1.8,0.3,2.2,0.6l0.6-2.4
		c-0.7-0.4-1.8-0.7-2.9-0.7c-2.6,0-4.4,1.7-4.4,4c0,1.3,0.8,2.7,3,3.7c1.3,0.6,1.8,1,1.8,1.7c0,0.7-0.5,1.2-1.7,1.2
		c-1,0-2.2-0.4-2.8-0.8l-0.6,2.4c0.8,0.5,2.1,0.8,3.3,0.8c3,0,4.7-1.5,4.7-4C145.1,15.4,144.2,14.2,142.2,13.3z"/>
	<path class="st1" d="M22.5,0H1.4C0.6,0,0,0.6,0,1.4V14C4.2,9.6,11.7,4.9,23,3.5c0.3,0,0.9-0.2,0.9-1V1.4C23.9,0.6,23.3,0,22.5,0z"
		/>
	<path class="st1" d="M148.3,8L148.3,8c0.4-0.1,0.6-0.3,0.6-0.7c0-0.2-0.1-0.4-0.2-0.6c-0.1-0.1-0.4-0.2-0.7-0.2h-0.8V9h0.4V8h0.2
		c0.1,0,0.2,0.1,0.3,0.3l0.2,0.7h0.6l-0.3-0.7C148.6,8.3,148.4,8.1,148.3,8z M147.9,7.8h-0.3V7.1h0.3c0.3,0,0.4,0.1,0.4,0.3
		C148.3,7.6,148.1,7.8,147.9,7.8z"/>
	<path class="st1" d="M149.4,6.6C149.1,6.2,148.6,6,148,6c-0.6,0-1.1,0.2-1.4,0.6C146.1,6.9,146,7.5,146,8c0,0.6,0.2,1,0.6,1.4
		c0.3,0.3,0.9,0.6,1.4,0.6c0.6,0,1-0.2,1.4-0.6c0.4-0.3,0.6-0.9,0.6-1.4C150,7.4,149.8,6.9,149.4,6.6z M149.1,9.1
		c-0.3,0.3-0.8,0.4-1.2,0.4c-0.4,0-0.9-0.1-1.2-0.4c-0.3-0.3-0.4-0.8-0.4-1.2c0-0.4,0.1-0.9,0.4-1.2c0.3-0.3,0.8-0.4,1.2-0.4
		c0.4,0,0.9,0.1,1.2,0.4c0.3,0.3,0.4,0.8,0.4,1.2C149.7,8.5,149.4,8.8,149.1,9.1z"/>
</g>
</svg>
