<?xml version="1.0" encoding="utf-8"?>
<!-- Generator: Adobe Illustrator 21.1.0, SVG Export Plug-In . SVG Version: 6.00 Build 0)  -->
<svg version="1.1" id="Layer_1" xmlns="http://www.w3.org/2000/svg" xmlns:xlink="http://www.w3.org/1999/xlink" x="0px" y="0px"
	 viewBox="0 0 22 22" style="enable-background:new 0 0 22 22;" xml:space="preserve">
<style type="text/css">
	.st0{fill:#666666;}
</style>
<g>
	<path class="st0" d="M19,21H3c-1.1,0-2-0.9-2-2V4c0-1.1,0.9-2,2-2h1V0h2v2h10V0h2v2h1c1.1,0,2,0.9,2,2v15C21,20.1,20.1,21,19,21z
		 M19,5H3v14h16V5z M8,9H6V7h2V9z M8,13H6v-2h2V13z M8,17H6v-2h2V17z M12,9h-2V7h2V9z M16,17h-6v-6h6V17z M14,13h-2v2h2V13z M14,7h2
		v2h-2V7z"/>
</g>
</svg>
