<?xml version="1.0" encoding="utf-8"?>
<!-- Generator: Adobe Illustrator 21.1.0, SVG Export Plug-In . SVG Version: 6.00 Build 0)  -->
<svg version="1.1" id="Layer_1" xmlns="http://www.w3.org/2000/svg" xmlns:xlink="http://www.w3.org/1999/xlink" x="0px" y="0px"
	 viewBox="0 0 16 16" style="enable-background:new 0 0 16 16;" xml:space="preserve">
<style type="text/css">
	.st0{fill:#666666;}
</style>
<g>
	<path class="st0" d="M12.2,10.7h-0.8l-0.3-0.3c1-1.1,1.5-2.6,1.5-4.1C12.7,2.8,9.8,0,6.3,0C2.8,0,0,2.8,0,6.3
		c0,3.5,2.8,6.3,6.3,6.3c1.6,0,3-0.6,4.1-1.5l0.3,0.3v0.8l3.9,3.9l1.5-1.5L12.2,10.7z M6.3,10.7c-2.4,0-4.4-2-4.4-4.4
		c0-2.4,2-4.4,4.4-4.4c2.4,0,4.4,2,4.4,4.4C10.7,8.8,8.8,10.7,6.3,10.7z"/>
</g>
</svg>
