<?xml version="1.0" encoding="utf-8"?>
<!-- Generator: Adobe Illustrator 21.1.0, SVG Export Plug-In . SVG Version: 6.00 Build 0)  -->
<svg version="1.1" id="Layer_1" xmlns="http://www.w3.org/2000/svg" xmlns:xlink="http://www.w3.org/1999/xlink" x="0px" y="0px"
	 viewBox="0 0 16 16" style="enable-background:new 0 0 16 16;" xml:space="preserve">
<style type="text/css">
	.st0{fill:#666666;}
</style>
<g>
	<path class="st0" d="M8,2.5C4.4,2.5,1.3,4.8,0,8c1.3,3.2,4.4,5.5,8,5.5c3.6,0,6.7-2.3,8-5.5C14.7,4.8,11.6,2.5,8,2.5z M8,11.7
		C6,11.7,4.4,10,4.4,8S6,4.3,8,4.3c2,0,3.6,1.6,3.6,3.7S10,11.7,8,11.7z M8,5.8c-1.2,0-2.2,1-2.2,2.2s1,2.2,2.2,2.2
		c1.2,0,2.2-1,2.2-2.2S9.2,5.8,8,5.8z"/>
</g>
</svg>
