<?xml version="1.0" encoding="utf-8"?>
<!-- Generator: Adobe Illustrator 21.1.0, SVG Export Plug-In . SVG Version: 6.00 Build 0)  -->
<svg version="1.1" id="Layer_1" xmlns="http://www.w3.org/2000/svg" xmlns:xlink="http://www.w3.org/1999/xlink" x="0px" y="0px"
	 viewBox="0 0 16 16" style="enable-background:new 0 0 16 16;" xml:space="preserve">
<style type="text/css">
	.st0{fill-rule:evenodd;clip-rule:evenodd;fill:#666666;}
</style>
<g>
	<path class="st0" d="M13.3,11.6l2.4,2.2l-1.4,1.4l-2.7-2.5c-1.1,0.5-2.3,0.8-3.6,0.8c-3.6,0-6.7-2.3-8-5.5c0.6-1.4,1.5-2.6,2.7-3.6
		L0.3,2.2l1.4-1.4l2.7,2.5C5.5,2.8,6.7,2.5,8,2.5c3.6,0,6.7,2.3,8,5.5C15.4,9.4,14.5,10.6,13.3,11.6z M4.4,8c0,2,1.6,3.7,3.6,3.7
		c0.7,0,1.4-0.2,1.9-0.6l-1.2-1.1c-0.2,0.1-0.5,0.1-0.7,0.1c-1.2,0-2.2-1-2.2-2.2c0-0.2,0-0.4,0.1-0.6l-1.1-1C4.5,6.9,4.4,7.4,4.4,8
		z M8,4.3c-0.7,0-1.3,0.2-1.9,0.6l1.1,1.1C7.5,5.9,7.7,5.8,8,5.8c1.2,0,2.2,1,2.2,2.2c0,0.2,0,0.4-0.1,0.6l1.1,1
		c0.2-0.5,0.4-1,0.4-1.6C11.6,5.9,10,4.3,8,4.3z"/>
</g>
</svg>
