<?xml version="1.0" encoding="utf-8"?>
<!-- Generator: Adobe Illustrator 21.1.0, SVG Export Plug-In . SVG Version: 6.00 Build 0)  -->
<svg version="1.1" id="Layer_1" xmlns="http://www.w3.org/2000/svg" xmlns:xlink="http://www.w3.org/1999/xlink" x="0px" y="0px" viewBox="0 0 24 26" style="enable-background:new 0 0 24 26;" xml:space="preserve">
    <style type="text/css">
    .st0 {
        fill: #494949;
    }

    .st1 {
        fill: #F48123;
    }
    </style>
    <g>
        <path class="st0" d="M1.7,19.1c-0.6,0.8-1.1,1.4-1.4,2.1c-0.1,0.1-0.3,0.7-0.3,1v0.4C0,23.4,0.6,24,1.4,24h21.2
		c0.8,0,1.4-0.6,1.4-1.4V6C12.4,8,5.3,14.4,1.7,19.1z" />
    </g>
    <g>
        <path class="st1" d="M22.5,0H1.4C0.6,0,0,0.6,0,1.4V14C4.2,9.6,11.7,4.9,23,3.5c0.3,0,0.9-0.2,0.9-1V1.4C23.9,0.6,23.3,0,22.5,0z" />
    </g>
</svg>